<svg version="1.1" id="Layer_1" xmlns="http://www.w3.org/2000/svg" xmlns:xlink="http://www.w3.org/1999/xlink" x="0px" y="0px"
	 width="100%" viewBox="0 0 512 512" enable-background="new 0 0 512 512" xml:space="preserve">
<path fill="#FCA352" opacity="1.000000" stroke="none" 
	d="
M291.000000,513.000000 
	C282.645782,513.000000 274.291534,513.000000 265.281372,512.671570 
	C254.147568,510.096832 245.298599,504.676392 237.880951,497.276337 
	C164.079025,423.648773 90.323425,349.974091 16.844370,276.024963 
	C11.692076,270.839722 8.127300,263.681763 5.140567,256.864471 
	C2.729552,251.361267 2.305516,244.987534 1.000000,239.000000 
	C1.000000,237.933334 1.000000,236.866653 1.351175,235.168488 
	C1.656838,219.894379 7.269824,207.407501 17.371862,197.250153 
	C66.838387,147.512787 116.512474,97.981842 166.118820,48.383560 
	C172.248062,42.255310 180.078003,38.865231 188.325668,39.275654 
	C206.213623,40.165794 217.983978,52.745350 217.990799,70.240822 
	C218.014786,131.724731 217.997345,193.208649 218.001480,254.692551 
	C218.003052,278.320801 235.962891,295.951935 259.278595,295.977142 
	C321.428894,296.044312 383.579376,295.983795 445.729767,296.017426 
	C455.102783,296.022491 462.875732,300.200531 468.465027,307.259979 
	C478.865509,320.396057 477.245270,338.430389 465.448700,350.160309 
	C419.014435,396.332062 372.695496,442.620941 326.555145,489.086212 
	C316.207733,499.506439 305.347839,508.733185 291.000000,513.000000 
z"/>
<path fill="white" opacity="1.000000" stroke="none" 
	d="
M291.468658,513.000000 
	C305.347839,508.733185 316.207733,499.506439 326.555145,489.086212 
	C372.695496,442.620941 419.014435,396.332062 465.448700,350.160309 
	C477.245270,338.430389 478.865509,320.396057 468.465027,307.259979 
	C462.875732,300.200531 455.102783,296.022491 445.729767,296.017426 
	C383.579376,295.983795 321.428894,296.044312 259.278595,295.977142 
	C235.962891,295.951935 218.003052,278.320801 218.001480,254.692551 
	C217.997345,193.208649 218.014786,131.724731 217.990799,70.240822 
	C217.983978,52.745350 206.213623,40.165794 188.325668,39.275654 
	C180.078003,38.865231 172.248062,42.255310 166.118820,48.383560 
	C116.512474,97.981842 66.838387,147.512787 17.371862,197.250153 
	C7.269824,207.407501 1.656838,219.894379 1.351175,234.768494 
	C1.000000,157.065643 1.000000,79.131302 1.000000,1.000000 
	C96.020805,1.000000 191.041748,1.000000 286.411621,1.323904 
	C275.261932,7.888853 271.746490,17.684465 271.825684,30.476929 
	C272.211243,92.764305 271.996613,155.055374 272.002625,217.345139 
	C272.003967,231.454361 282.533508,241.996048 296.626678,241.997360 
	C360.915039,242.003265 425.203491,242.033020 489.491608,241.905731 
	C492.828583,241.899124 496.252716,240.796326 499.479767,239.730194 
	C506.257843,237.490875 509.336914,231.415680 513.000000,226.000000 
	C513.000000,321.584381 513.000000,417.168793 513.000000,513.000000 
	C439.312622,513.000000 365.624969,513.000000 291.468658,513.000000 
z"/>
<path fill="#FCA352" opacity="1.000000" stroke="none" 
	d="
M513.000000,225.531342 
	C509.336914,231.415680 506.257843,237.490875 499.479767,239.730194 
	C496.252716,240.796326 492.828583,241.899124 489.491608,241.905731 
	C425.203491,242.033020 360.915039,242.003265 296.626678,241.997360 
	C282.533508,241.996048 272.003967,231.454361 272.002625,217.345139 
	C271.996613,155.055374 272.211243,92.764305 271.825684,30.476929 
	C271.746490,17.684465 275.261932,7.888853 286.880280,1.323904 
	C357.020905,1.000000 427.041779,1.000000 497.680969,1.312915 
	C505.454193,4.594624 509.978607,10.078723 513.000000,17.000000 
	C513.000000,86.354225 513.000000,155.708450 513.000000,225.531342 
z"/>
<path fill="white" opacity="1.000000" stroke="none" 
	d="
M1.000000,239.468658 
	C2.305516,244.987534 2.729552,251.361267 5.140567,256.864471 
	C8.127300,263.681763 11.692076,270.839722 16.844370,276.024963 
	C90.323425,349.974091 164.079025,423.648773 237.880951,497.276337 
	C245.298599,504.676392 254.147568,510.096832 264.812683,512.671570 
	C177.071594,513.000000 89.143173,513.000000 1.000000,513.000000 
	C1.000000,421.979218 1.000000,330.958282 1.000000,239.468658 
z"/>
<path fill="white" opacity="1.000000" stroke="none" 
	d="
M513.000000,16.528801 
	C509.978607,10.078723 505.454193,4.594624 498.149628,1.312915 
	C502.927460,1.000000 507.854950,1.000000 513.000000,1.000000 
	C513.000000,6.017815 513.000000,11.037709 513.000000,16.528801 
z"/>
</svg>