<svg version="1.1" id="Layer_1" xmlns="http://www.w3.org/2000/svg" xmlns:xlink="http://www.w3.org/1999/xlink" x="0px" y="0px"
	 width="100%" viewBox="0 0 450 360" enable-background="new 0 0 450 360" xml:space="preserve">

<path fill="#F4276D" opacity="1.000000" stroke="none" 
	d="
M271.313141,142.105896 
	C268.791870,146.636948 266.270630,151.167999 263.183533,155.716827 
	C260.548462,153.465408 258.602356,151.067429 256.387573,148.950562 
	C248.934723,141.827179 241.386215,134.803848 233.874313,127.742249 
	C235.983490,123.923874 238.092667,120.105499 240.787292,116.226257 
	C250.462616,124.437515 259.538727,132.724838 268.670166,140.950806 
	C269.347961,141.561401 270.422852,141.731201 271.313141,142.105896 
z"/>
<path fill="#F31C77" opacity="1.000000" stroke="none" 
	d="
M271.569519,141.899765 
	C270.422852,141.731201 269.347961,141.561401 268.670166,140.950806 
	C259.538727,132.724838 250.462616,124.437515 241.048065,116.019028 
	C243.248886,111.588234 245.774399,107.303810 248.520477,103.322189 
	C249.360931,104.687500 249.763748,106.000160 250.643311,106.763466 
	C252.869263,108.695190 255.427399,110.246056 257.638855,112.192207 
	C262.062683,116.085335 266.203308,120.310585 270.740295,124.060638 
	C273.163513,126.063576 276.168976,127.362144 278.911652,128.978607 
	C276.549744,133.216949 274.187805,137.455292 271.569519,141.899765 
z"/>
<path fill="#F86631" opacity="1.000000" stroke="none" 
	d="
M226.012772,220.710648 
	C223.949692,224.382431 221.886627,228.054214 219.264542,231.746994 
	C216.408966,229.005157 214.374557,225.960495 211.765533,223.533585 
	C204.603119,216.871109 197.199432,210.468018 189.891220,203.962280 
	C192.082092,200.024323 194.272949,196.086380 197.090149,192.044556 
	C200.167511,194.337524 202.609619,196.743530 205.071365,199.129318 
	C210.803299,204.684326 216.544693,210.229568 222.246033,215.828766 
	C222.209793,215.878769 222.086502,215.886078 222.164215,216.197296 
	C222.615677,216.691727 222.989410,216.874954 223.548264,217.273987 
	C224.493164,218.563416 225.252975,219.637039 226.012772,220.710648 
z"/>
<path fill="#FC791F" opacity="1.000000" stroke="none" 
	d="
M213.043961,243.021973 
	C211.289612,246.244049 209.535263,249.466125 207.150726,252.860947 
	C205.800583,252.562759 205.011124,252.168869 204.380157,251.599365 
	C203.743546,251.024734 203.372543,250.124313 202.691544,249.637421 
	C201.558990,248.827591 200.105820,248.422974 199.076675,247.518768 
	C192.608597,241.835892 186.193115,236.092026 179.830704,230.291061 
	C178.674774,229.237091 177.843903,227.826569 176.862976,226.580658 
	C178.719116,223.190491 180.575256,219.800339 183.035583,216.231659 
	C190.643646,222.085876 197.730362,228.026230 204.613297,234.193985 
	C207.634186,236.900970 212.421982,238.006866 213.043961,243.021973 
z"/>
<path fill="#FD8315" opacity="1.000000" stroke="none" 
	d="
M176.580994,226.796722 
	C177.843903,227.826569 178.674774,229.237091 179.830704,230.291061 
	C186.193115,236.092026 192.608597,241.835892 199.076675,247.518768 
	C200.105820,248.422974 201.558990,248.827591 202.691544,249.637421 
	C203.372543,250.124313 203.743546,251.024734 204.380157,251.599365 
	C205.011124,252.168869 205.800583,252.562759 206.882828,253.058838 
	C205.968674,258.003265 202.910812,259.961090 197.813126,259.205505 
	C195.232819,258.822998 192.552429,259.115692 189.420914,258.677185 
	C182.297485,252.202774 175.670425,246.154327 169.043381,240.105881 
	C171.461929,235.741516 173.880478,231.377151 176.580994,226.796722 
z"/>
<path fill="#F43263" opacity="1.000000" stroke="none" 
	d="
M233.605347,127.960808 
	C241.386215,134.803848 248.934723,141.827179 256.387573,148.950562 
	C258.602356,151.067429 260.548462,153.465408 262.916809,155.920502 
	C260.678009,160.656540 258.140015,165.206665 255.324188,169.603668 
	C256.178406,165.884369 254.911362,163.277023 252.071518,160.999863 
	C246.834106,156.800186 241.578934,152.593353 236.670959,148.024506 
	C234.209976,145.733597 232.604218,145.890640 230.751251,148.232071 
	C230.779633,148.168228 230.909714,148.129517 230.822235,147.874146 
	C230.441483,147.424988 230.148178,147.231216 229.622559,146.856949 
	C229.170532,146.137466 228.950836,145.598495 228.940659,144.979126 
	C228.995483,144.676346 228.840790,144.453979 228.625641,144.275253 
	C228.565201,144.318909 228.416306,144.327408 228.561737,143.976593 
	C228.112396,142.363647 227.517639,141.101532 226.922882,139.839417 
	C229.060715,135.952728 231.198547,132.066055 233.605347,127.960808 
z"/>
<path fill="#FB7028" opacity="1.000000" stroke="none" 
	d="
M213.307648,242.812225 
	C212.421982,238.006866 207.634186,236.900970 204.613297,234.193985 
	C197.730362,228.026230 190.643646,222.085876 183.291443,216.014801 
	C185.080505,212.106140 187.217865,208.235825 189.623215,204.163879 
	C197.199432,210.468018 204.603119,216.871109 211.765533,223.533585 
	C214.374557,225.960495 216.408966,229.005157 219.009155,231.958435 
	C217.398972,235.633408 215.485168,239.117935 213.307648,242.812225 
z"/>
<path fill="#F2137F" opacity="1.000000" stroke="none" 
	d="
M279.154968,128.741470 
	C276.168976,127.362144 273.163513,126.063576 270.740295,124.060638 
	C266.203308,120.310585 262.062683,116.085335 257.638855,112.192207 
	C255.427399,110.246056 252.869263,108.695190 250.643311,106.763466 
	C249.763748,106.000160 249.360931,104.687500 248.867569,103.326889 
	C255.354034,102.981590 261.713959,102.934387 268.540558,103.330872 
	C269.815063,105.159866 270.507446,106.629967 271.451385,107.915337 
	C274.912048,112.627792 279.749268,115.340004 285.197937,117.111176 
	C283.264709,120.908897 281.331482,124.706619 279.154968,128.741470 
z"/>
<path fill="#C12AA9" opacity="1.000000" stroke="none" 
	d="
M175.321777,132.987534 
	C174.255997,131.264969 173.190231,129.542404 172.058105,127.118271 
	C172.180801,125.798935 172.177933,124.847145 172.586929,124.612129 
	C183.545319,118.315132 194.546051,112.091797 205.539612,105.855995 
	C206.454910,107.352058 207.370193,108.848122 208.140533,110.721039 
	C208.166718,111.130013 208.337875,111.162125 208.509033,111.194229 
	C208.509033,111.194229 208.677414,111.394676 208.460159,111.850838 
	C207.241455,113.350845 206.409485,114.678436 205.211838,115.393837 
	C195.286743,121.322449 185.294037,127.137871 175.321777,132.987534 
z"/>
<path fill="#F33A5C" opacity="1.000000" stroke="none" 
	d="
M230.722870,148.295914 
	C232.604218,145.890640 234.209976,145.733597 236.670959,148.024506 
	C241.578934,152.593353 246.834106,156.800186 252.071518,160.999863 
	C254.911362,163.277023 256.178406,165.884369 255.067902,169.833679 
	C253.279648,173.494858 251.469818,176.772888 249.140381,180.015900 
	C247.004700,177.349350 245.388611,174.717789 243.685120,171.770142 
	C242.436096,169.617523 241.274506,167.780991 240.015533,165.612518 
	C238.705688,163.300461 237.493240,161.320328 236.218964,159.032791 
	C234.556946,156.104065 232.956741,153.482742 231.283081,150.537903 
	C231.047363,149.574905 230.885117,148.935410 230.722870,148.295914 
z"/>
<path fill="#8D59C6" opacity="1.000000" stroke="none" 
	d="
M223.375916,136.827820 
	C224.083176,137.865753 224.790451,138.903687 225.785004,140.388367 
	C226.080475,141.174820 226.088654,141.514526 225.792633,142.038361 
	C223.623276,145.479904 221.758102,148.737350 219.514877,152.002991 
	C218.495331,152.143875 217.777100,152.133682 217.223877,152.430756 
	C209.440979,156.610123 201.680557,160.831284 193.914673,165.042297 
	C192.567230,162.785110 191.219772,160.527924 189.905487,157.589600 
	C191.464462,156.344910 193.142517,156.024323 194.491653,155.178864 
	C204.157257,149.121719 213.755966,142.957809 223.375916,136.827820 
z"/>
<path fill="#5262B5" opacity="1.000000" stroke="none" 
	d="
M236.280792,159.340195 
	C237.493240,161.320328 238.705688,163.300461 239.692352,165.772278 
	C233.823746,169.758392 227.927109,172.909912 222.610962,176.845566 
	C217.494034,180.633728 210.021942,181.748489 207.653107,188.931488 
	C205.889420,186.250809 204.391617,183.786346 202.893814,181.321884 
	C202.845215,181.144058 202.796631,180.966248 202.934143,180.209335 
	C204.406265,178.081345 205.692291,176.532471 207.361328,174.984192 
	C210.808823,173.543503 213.897705,172.151489 216.932617,170.650391 
	C222.762070,167.766998 228.588135,164.873489 234.342728,161.845642 
	C235.192810,161.398346 235.644669,160.194183 236.280792,159.340195 
z"/>
<path fill="#FD8E0C" opacity="1.000000" stroke="none" 
	d="
M168.815887,240.350769 
	C175.670425,246.154327 182.297485,252.202774 188.960510,258.592407 
	C178.845978,258.933563 168.695450,258.933563 157.751404,258.933563 
	C161.594818,252.429901 165.091614,246.512787 168.815887,240.350769 
z"/>
<path fill="#4073BF" opacity="1.000000" stroke="none" 
	d="
M243.772522,172.086212 
	C245.388611,174.717789 247.004700,177.349350 248.872513,180.252228 
	C248.809006,181.192917 248.493774,181.862289 247.682938,182.589905 
	C246.105591,182.652466 244.782181,182.248917 243.979568,182.724396 
	C236.139557,187.368988 228.446350,192.263367 220.567917,196.839676 
	C218.516678,198.031174 215.964752,198.360687 213.413025,198.883270 
	C212.409500,197.223312 211.635742,195.766159 210.945374,193.930939 
	C218.340912,189.373962 225.796036,185.421326 232.908554,180.926529 
	C236.827148,178.450165 240.170074,175.062851 243.772522,172.086212 
z"/>
<path fill="#984EC0" opacity="1.000000" stroke="none" 
	d="
M223.263641,136.493088 
	C213.755966,142.957809 204.157257,149.121719 194.491653,155.178864 
	C193.142517,156.024323 191.464462,156.344910 189.888885,157.259125 
	C188.558777,155.654236 187.278458,153.698700 186.230530,151.289825 
	C188.268784,149.582413 189.982666,148.162048 191.896606,147.103363 
	C199.695007,142.789780 207.635406,138.725143 215.326981,134.232361 
	C216.961685,133.277496 217.771835,130.911041 218.961884,129.194946 
	C220.358383,131.516083 221.754883,133.837219 223.263641,136.493088 
z"/>
<path fill="#AE3CB5" opacity="1.000000" stroke="none" 
	d="
M182.186279,144.577484 
	C181.132462,142.952988 180.078644,141.328522 179.266266,139.172852 
	C179.976517,138.180542 180.372894,137.592743 180.924896,137.277008 
	C191.623047,131.158112 202.339386,125.070999 213.051987,118.977356 
	C214.559433,121.434250 216.066879,123.891136 217.334320,126.624435 
	C215.716049,126.973602 214.085724,126.589821 212.998703,127.190048 
	C202.675232,132.890488 192.444031,138.758026 182.186279,144.577484 
z"/>
<path fill="#377CC4" opacity="1.000000" stroke="none" 
	d="
M213.642792,199.086090 
	C215.964752,198.360687 218.516678,198.031174 220.567917,196.839676 
	C228.446350,192.263367 236.139557,187.368988 243.979568,182.724396 
	C244.782181,182.248917 246.105591,182.652466 247.488800,182.796417 
	C245.247284,187.447983 242.704300,191.951279 239.566498,196.727112 
	C235.431686,198.704636 231.813004,200.266388 228.374466,202.155975 
	C225.108627,203.950668 222.031326,206.088379 218.904099,208.045685 
	C218.937073,208.016083 218.935089,208.104675 218.921967,207.760712 
	C218.513885,206.890305 218.118896,206.363861 217.473541,205.639954 
	C216.029724,203.323685 214.836258,201.204880 213.642792,199.086090 
z"/>
<path fill="#8163CC" opacity="1.000000" stroke="none" 
	d="
M206.978317,174.983597 
	C205.692291,176.532471 204.406265,178.081345 202.943970,179.933014 
	C199.859222,175.403732 196.950729,170.571640 193.978455,165.390930 
	C201.680557,160.831284 209.440979,156.610123 217.223877,152.430756 
	C217.777100,152.133682 218.495331,152.143875 219.394455,152.312897 
	C218.427368,154.741043 217.202682,156.867477 215.706100,159.197403 
	C212.615585,164.595139 209.796951,169.789368 206.978317,174.983597 
z"/>
<path fill="#A345B9" opacity="1.000000" stroke="none" 
	d="
M182.262894,144.906311 
	C192.444031,138.758026 202.675232,132.890488 212.998703,127.190048 
	C214.085724,126.589821 215.716049,126.973602 217.427826,126.943970 
	C218.122650,127.512581 218.483994,128.038101 218.903595,128.879272 
	C217.771835,130.911041 216.961685,133.277496 215.326981,134.232361 
	C207.635406,138.725143 199.695007,142.789780 191.896606,147.103363 
	C189.982666,148.162048 188.268784,149.582413 186.163788,150.948029 
	C184.689606,149.118073 183.514557,147.176590 182.262894,144.906311 
z"/>
<path fill="#B932AF" opacity="1.000000" stroke="none" 
	d="
M212.992859,118.633873 
	C202.339386,125.070999 191.623047,131.158112 180.924896,137.277008 
	C180.372894,137.592743 179.976517,138.180542 179.210785,138.840302 
	C177.773193,137.228149 176.632477,135.417343 175.406769,133.297028 
	C185.294037,127.137871 195.286743,121.322449 205.211838,115.393837 
	C206.409485,114.678436 207.241455,113.350845 208.491180,111.978004 
	C210.137543,113.862808 211.535629,116.076599 212.992859,118.633873 
z"/>
<path fill="#9B3C25" opacity="1.000000" stroke="none" 
	d="
M213.413025,198.883270 
	C214.836258,201.204880 216.029724,203.323685 217.523407,205.976089 
	C218.194107,207.041351 218.564590,207.573013 218.935089,208.104675 
	C218.935089,208.104675 218.937073,208.016083 218.943893,208.400589 
	C220.061234,211.116318 221.171753,213.447540 222.282257,215.778778 
	C216.544693,210.229568 210.803299,204.684326 205.071365,199.129318 
	C202.609619,196.743530 200.167511,194.337524 197.381302,191.848297 
	C198.838593,188.412170 200.631058,185.068481 202.658676,181.523346 
	C204.391617,183.786346 205.889420,186.250809 207.750320,189.248749 
	C209.029617,191.291153 209.945801,192.800079 210.861984,194.308990 
	C211.635742,195.766159 212.409500,197.223312 213.413025,198.883270 
z"/>
<path fill="#F10B88" opacity="1.000000" stroke="none" 
	d="
M285.508575,116.993179 
	C279.749268,115.340004 274.912048,112.627792 271.451385,107.915337 
	C270.507446,106.629967 269.815063,105.159866 269.002747,103.412682 
	C277.131683,103.050819 285.265076,103.050819 294.259918,103.050819 
	C291.277618,107.935272 288.548431,112.405228 285.508575,116.993179 
z"/>
<path fill="#CE1FA3" opacity="1.000000" stroke="none" 
	d="
M205.384979,105.468475 
	C194.546051,112.091797 183.545319,118.315132 172.586929,124.612129 
	C172.177933,124.847145 172.180801,125.798935 171.964600,126.795357 
	C170.342514,124.674454 168.747559,122.174889 167.487549,119.330597 
	C176.020752,114.669724 184.245178,110.401482 192.377365,105.964218 
	C193.202255,105.514130 193.471664,104.045990 193.998840,103.050278 
	C197.762787,103.615936 202.151321,100.727097 205.384979,105.468475 
z"/>
<path fill="#2D87CB" opacity="1.000000" stroke="none" 
	d="
M222.246033,215.828766 
	C221.171753,213.447540 220.061234,211.116318 218.910919,208.430176 
	C222.031326,206.088379 225.108627,203.950668 228.374466,202.155975 
	C231.813004,200.266388 235.431686,198.704636 239.341370,196.996964 
	C235.303528,204.759033 230.896011,212.523804 226.250641,220.499603 
	C225.252975,219.637039 224.493164,218.563416 223.424927,216.971954 
	C222.773148,216.264771 222.429825,216.075424 222.086502,215.886078 
	C222.086502,215.886078 222.209793,215.878769 222.246033,215.828766 
z"/>
<path fill="#D6169D" opacity="1.000000" stroke="none" 
	d="
M193.540680,102.974884 
	C193.471664,104.045990 193.202255,105.514130 192.377365,105.964218 
	C184.245178,110.401482 176.020752,114.669724 167.449692,118.987366 
	C167.076904,118.988846 166.971664,118.878593 166.978455,118.455017 
	C165.354065,113.865799 166.439301,111.779671 171.026337,110.181709 
	C174.727646,108.892311 177.699265,105.508232 180.994598,103.053421 
	C185.023911,103.002106 189.053223,102.950798 193.540680,102.974884 
z"/>
<path fill="#E20E97" opacity="1.000000" stroke="none" 
	d="
M180.531906,102.975632 
	C177.699265,105.508232 174.727646,108.892311 171.026337,110.181709 
	C166.439301,111.779671 165.354065,113.865799 167.028168,118.397255 
	C164.076706,113.702927 161.082321,108.642776 157.682724,102.897850 
	C165.696594,102.897850 172.882904,102.897850 180.531906,102.975632 
z"/>
<path fill="#F33A5C" opacity="1.000000" stroke="none" 
	d="
M226.096832,141.854248 
	C226.088654,141.514526 226.080475,141.174820 226.035431,140.583496 
	C226.148026,140.241257 226.297501,140.150604 226.684937,139.949677 
	C227.517639,141.101532 228.112396,142.363647 228.325592,143.824158 
	C227.328293,143.299774 226.712570,142.577011 226.096832,141.854248 
z"/>
<path fill="#B932AF" opacity="1.000000" stroke="none" 
	d="
M208.500504,111.143745 
	C208.337875,111.162125 208.166718,111.130013 208.236908,111.044838 
	C208.478256,110.991768 208.491974,111.093254 208.500504,111.143745 
z"/>
<path fill="#9B3C25" opacity="1.000000" stroke="none" 
	d="
M222.164215,216.197296 
	C222.429825,216.075424 222.773148,216.264771 223.239807,216.756134 
	C222.989410,216.874954 222.615677,216.691727 222.164215,216.197296 
z"/>
<path fill="#6850AA" opacity="1.000000" stroke="none" 
	d="
M225.792648,142.038361 
	C226.712570,142.577011 227.328293,143.299774 228.180161,144.174988 
	C228.416306,144.327408 228.565201,144.318909 228.570343,144.484039 
	C228.575500,144.649155 228.731140,145.059509 228.731140,145.059509 
	C228.950836,145.598495 229.170532,146.137466 229.710938,147.118439 
	C230.324341,147.750122 230.617035,147.939819 230.909714,148.129517 
	C230.909714,148.129517 230.779633,148.168228 230.751251,148.232071 
	C230.885117,148.935410 231.047363,149.574905 230.882141,150.581055 
	C229.751282,151.373352 228.695358,151.602371 228.185776,152.256805 
	C225.060944,156.269928 221.192734,158.821030 215.977997,158.993912 
	C217.202682,156.867477 218.427368,154.741043 219.772491,152.304688 
	C221.758102,148.737350 223.623276,145.479904 225.792648,142.038361 
z"/>
<path fill="#F33A5C" opacity="1.000000" stroke="none" 
	d="
M230.822235,147.874146 
	C230.617035,147.939819 230.324341,147.750122 229.943268,147.298935 
	C230.148178,147.231216 230.441483,147.424988 230.822235,147.874146 
z"/>
<path fill="#F33A5C" opacity="1.000000" stroke="none" 
	d="
M228.940659,144.979126 
	C228.731140,145.059509 228.575500,144.649155 228.630798,144.440369 
	C228.840790,144.453979 228.995483,144.676346 228.940659,144.979126 
z"/>
<path fill="#486BBA" opacity="1.000000" stroke="none" 
	d="
M210.945374,193.930939 
	C209.945801,192.800079 209.029617,191.291153 208.016205,189.464966 
	C210.021942,181.748489 217.494034,180.633728 222.610962,176.845566 
	C227.927109,172.909912 233.823746,169.758392 239.789734,166.104218 
	C241.274506,167.780991 242.436096,169.617523 243.685104,171.770142 
	C240.170074,175.062851 236.827148,178.450165 232.908554,180.926529 
	C225.796036,185.421326 218.340912,189.373962 210.945374,193.930939 
z"/>
<path fill="#5C59AF" opacity="1.000000" stroke="none" 
	d="
M215.706085,159.197403 
	C221.192734,158.821030 225.060944,156.269928 228.185776,152.256805 
	C228.695358,151.602371 229.751282,151.373352 230.955612,150.904572 
	C232.956741,153.482742 234.556946,156.104065 236.218964,159.032791 
	C235.644669,160.194183 235.192810,161.398346 234.342728,161.845642 
	C228.588135,164.873489 222.762070,167.766998 216.932617,170.650391 
	C213.897705,172.151489 210.808823,173.543503 207.361328,174.984192 
	C209.796951,169.789368 212.615585,164.595139 215.706085,159.197403 
z"/>
<path fill="#2D87CB" opacity="1.000000" stroke="none" 
	d="
M218.921967,207.760712 
	C218.564590,207.573013 218.194107,207.041351 217.773773,206.173553 
	C218.118896,206.363861 218.513885,206.890305 218.921967,207.760712 
z"/>
</svg>